<svg width="4720" height="2974" viewBox="0 0 4720 2974" fill="none" xmlns="http://www.w3.org/2000/svg">
<g clip-path="url(#clip0_13_2)">
<g clip-path="url(#clip1_13_2)">
<path d="M4913.77 238.34C4990.35 434.697 4980.08 655.407 4976.83 876.734C4973.01 1099.21 4976.2 1322.31 4872.4 1474.87C4769.76 1628.01 4560.7 1709.45 4354.51 1785.13C4147.15 1860.23 3943.25 1931.3 3780.83 1872C3617.84 1813.84 3497.5 1625.91 3374.53 1469.74C3252.73 1314.15 3128.87 1189.19 3059.67 1033.91C2990.47 878.624 2974.75 692.441 3038.25 541.388C3102.92 390.92 3246.81 275.583 3390.72 163.135C3534.63 50.6873 3679.74 -58.286 3865.45 -136.974C4052.33 -215.077 4281.59 -260.573 4477.35 -197.611C4673.71 -132.912 4836.58 40.2456 4913.77 238.34Z" fill="#D9D9D9"/>
</g>
<g clip-path="url(#clip2_13_2)">
<path d="M689.765 498.34C766.351 694.697 756.083 915.407 752.833 1136.73C749.009 1359.21 752.203 1582.31 648.396 1734.87C545.763 1888.01 336.702 1969.45 130.511 2045.13C-76.8537 2120.23 -280.749 2191.3 -443.167 2132C-606.158 2073.84 -726.498 1885.91 -849.471 1729.74C-971.27 1574.15 -1095.13 1449.19 -1164.33 1293.91C-1233.53 1138.62 -1249.25 952.441 -1185.75 801.388C-1121.08 650.92 -977.193 535.583 -833.282 423.135C-689.372 310.687 -544.261 201.714 -358.551 123.026C-171.668 44.9227 57.5889 -0.573223 253.35 62.3889C449.712 127.088 612.579 300.246 689.765 498.34Z" fill="#D9D9D9"/>
</g>
</g>
<defs>
<clipPath id="clip0_13_2">
<rect width="4720" height="2974" fill="white"/>
</clipPath>
<clipPath id="clip1_13_2">
<rect width="2623.26" height="2575.11" fill="white" transform="translate(3341.87 -904) rotate(26.4718)"/>
</clipPath>
<clipPath id="clip2_13_2">
<rect width="2623.26" height="2575.11" fill="white" transform="translate(-882.126 -644) rotate(26.4718)"/>
</clipPath>
</defs>
</svg>
