<?xml version="1.0" standalone="no"?>
<svg viewBox="0 0 200 200" xmlns="http://www.w3.org/2000/svg">
  <path fill="#D9D9D9" d="M46.1,-75C58,-64,64.8,-48.3,72.1,-32.8C79.4,-17.2,87.2,-1.8,85.3,12.4C83.5,26.6,72,39.5,60.5,51.9C48.9,64.3,37.4,76.3,24.3,77.8C11.2,79.4,-3.4,70.5,-17.1,63.9C-30.7,57.3,-43.4,52.9,-53.4,44.5C-63.4,36.1,-70.8,23.7,-71.6,11C-72.3,-1.7,-66.4,-14.7,-60.4,-27.5C-54.4,-40.3,-48.2,-52.9,-38.2,-64.8C-28.1,-76.7,-14,-87.8,1.5,-90.2C17.1,-92.5,34.1,-86.1,46.1,-75Z" transform="translate(100 100)" />
</svg>
